<svg id="visual" viewBox="0 0 900 600" width="900" height="600" xmlns="http://www.w3.org/2000/svg" xmlns:xlink="http://www.w3.org/1999/xlink" version="1.1"><rect x="0" y="0" width="900" height="600" fill="#e6ebfd"></rect><defs><linearGradient id="grad1_0" x1="33.3%" y1="100%" x2="100%" y2="0%"><stop offset="20%" stop-color="#c4cdff" stop-opacity="1"></stop><stop offset="80%" stop-color="#c4cdff" stop-opacity="1"></stop></linearGradient></defs><defs><linearGradient id="grad1_1" x1="33.3%" y1="100%" x2="100%" y2="0%"><stop offset="20%" stop-color="#c4cdff" stop-opacity="1"></stop><stop offset="80%" stop-color="#c9d1ff" stop-opacity="1"></stop></linearGradient></defs><defs><linearGradient id="grad1_2" x1="33.3%" y1="100%" x2="100%" y2="0%"><stop offset="20%" stop-color="#cdd6ff" stop-opacity="1"></stop><stop offset="80%" stop-color="#c9d1ff" stop-opacity="1"></stop></linearGradient></defs><defs><linearGradient id="grad1_3" x1="33.3%" y1="100%" x2="100%" y2="0%"><stop offset="20%" stop-color="#cdd6ff" stop-opacity="1"></stop><stop offset="80%" stop-color="#d2dafe" stop-opacity="1"></stop></linearGradient></defs><defs><linearGradient id="grad1_4" x1="33.3%" y1="100%" x2="100%" y2="0%"><stop offset="20%" stop-color="#d7defe" stop-opacity="1"></stop><stop offset="80%" stop-color="#d2dafe" stop-opacity="1"></stop></linearGradient></defs><defs><linearGradient id="grad1_5" x1="33.3%" y1="100%" x2="100%" y2="0%"><stop offset="20%" stop-color="#d7defe" stop-opacity="1"></stop><stop offset="80%" stop-color="#dce3fe" stop-opacity="1"></stop></linearGradient></defs><defs><linearGradient id="grad1_6" x1="33.3%" y1="100%" x2="100%" y2="0%"><stop offset="20%" stop-color="#e1e7fd" stop-opacity="1"></stop><stop offset="80%" stop-color="#dce3fe" stop-opacity="1"></stop></linearGradient></defs><defs><linearGradient id="grad1_7" x1="33.3%" y1="100%" x2="100%" y2="0%"><stop offset="20%" stop-color="#e1e7fd" stop-opacity="1"></stop><stop offset="80%" stop-color="#e6ebfd" stop-opacity="1"></stop></linearGradient></defs><defs><linearGradient id="grad2_0" x1="0%" y1="100%" x2="66.7%" y2="0%"><stop offset="20%" stop-color="#c4cdff" stop-opacity="1"></stop><stop offset="80%" stop-color="#c4cdff" stop-opacity="1"></stop></linearGradient></defs><defs><linearGradient id="grad2_1" x1="0%" y1="100%" x2="66.7%" y2="0%"><stop offset="20%" stop-color="#c9d1ff" stop-opacity="1"></stop><stop offset="80%" stop-color="#c4cdff" stop-opacity="1"></stop></linearGradient></defs><defs><linearGradient id="grad2_2" x1="0%" y1="100%" x2="66.7%" y2="0%"><stop offset="20%" stop-color="#c9d1ff" stop-opacity="1"></stop><stop offset="80%" stop-color="#cdd6ff" stop-opacity="1"></stop></linearGradient></defs><defs><linearGradient id="grad2_3" x1="0%" y1="100%" x2="66.7%" y2="0%"><stop offset="20%" stop-color="#d2dafe" stop-opacity="1"></stop><stop offset="80%" stop-color="#cdd6ff" stop-opacity="1"></stop></linearGradient></defs><defs><linearGradient id="grad2_4" x1="0%" y1="100%" x2="66.7%" y2="0%"><stop offset="20%" stop-color="#d2dafe" stop-opacity="1"></stop><stop offset="80%" stop-color="#d7defe" stop-opacity="1"></stop></linearGradient></defs><defs><linearGradient id="grad2_5" x1="0%" y1="100%" x2="66.7%" y2="0%"><stop offset="20%" stop-color="#dce3fe" stop-opacity="1"></stop><stop offset="80%" stop-color="#d7defe" stop-opacity="1"></stop></linearGradient></defs><defs><linearGradient id="grad2_6" x1="0%" y1="100%" x2="66.7%" y2="0%"><stop offset="20%" stop-color="#dce3fe" stop-opacity="1"></stop><stop offset="80%" stop-color="#e1e7fd" stop-opacity="1"></stop></linearGradient></defs><defs><linearGradient id="grad2_7" x1="0%" y1="100%" x2="66.7%" y2="0%"><stop offset="20%" stop-color="#e6ebfd" stop-opacity="1"></stop><stop offset="80%" stop-color="#e1e7fd" stop-opacity="1"></stop></linearGradient></defs><g transform="translate(900, 600)"><path d="M-532 0C-512.5 -19.2 -493 -38.5 -489.4 -59.4C-485.9 -80.4 -498.3 -103 -494.2 -121.8C-490.1 -140.7 -469.6 -155.8 -461 -174.8C-452.3 -193.9 -455.6 -216.9 -450.7 -236.5C-445.8 -256.1 -432.6 -272.3 -424.7 -293.1C-416.8 -313.9 -414.2 -339.4 -399 -353.4C-383.7 -367.5 -355.9 -370.1 -336.2 -379.5C-316.5 -388.9 -305 -405.3 -293.1 -424.7C-281.3 -444.1 -269 -466.6 -250.5 -477.3C-231.9 -487.9 -207.1 -486.8 -184.7 -487.1C-162.4 -487.5 -142.7 -489.3 -123.5 -501C-104.3 -512.7 -85.7 -534.4 -65.2 -536.9C-44.7 -539.4 -22.4 -522.7 0 -506L0 0Z" fill="#e3e9fd"></path><path d="M-465.5 0C-448.4 -16.8 -431.3 -33.7 -428.2 -52C-425.1 -70.3 -436 -90.1 -432.4 -106.6C-428.9 -123.1 -410.9 -136.3 -403.3 -153C-395.8 -169.7 -398.7 -189.8 -394.4 -207C-390 -224.1 -378.5 -238.3 -371.6 -256.5C-364.7 -274.7 -362.4 -297 -349.1 -309.3C-335.8 -321.5 -311.4 -323.8 -294.2 -332.1C-277 -340.3 -266.9 -354.6 -256.5 -371.6C-246.1 -388.6 -235.4 -408.3 -219.2 -417.6C-202.9 -427 -181.2 -426 -161.7 -426.3C-142.1 -426.5 -124.8 -428.1 -108.1 -438.4C-91.3 -448.6 -75 -467.6 -57 -469.8C-39.1 -472 -19.6 -457.4 0 -442.7L0 0Z" fill="#dee5fe"></path><path d="M-399 0C-384.4 -14.4 -369.7 -28.9 -367.1 -44.6C-364.4 -60.3 -373.7 -77.2 -370.7 -91.4C-367.6 -105.5 -352.2 -116.8 -345.7 -131.1C-339.3 -145.4 -341.7 -162.7 -338 -177.4C-334.3 -192.1 -324.4 -204.2 -318.5 -219.8C-312.6 -235.5 -310.6 -254.6 -299.2 -265.1C-287.8 -275.6 -266.9 -277.5 -252.2 -284.6C-237.4 -291.7 -228.7 -303.9 -219.8 -318.5C-210.9 -333.1 -201.8 -349.9 -187.9 -357.9C-174 -366 -155.3 -365.1 -138.6 -365.4C-121.8 -365.6 -107 -367 -92.6 -375.8C-78.2 -384.6 -64.3 -400.8 -48.9 -402.7C-33.5 -404.5 -16.8 -392 0 -379.5L0 0Z" fill="#d9e0fe"></path><path d="M-332.5 0C-320.3 -12 -308.1 -24.1 -305.9 -37.1C-303.7 -50.2 -311.4 -64.4 -308.9 -76.1C-306.3 -87.9 -293.5 -97.3 -288.1 -109.3C-282.7 -121.2 -284.8 -135.6 -281.7 -147.8C-278.6 -160.1 -270.3 -170.2 -265.4 -183.2C-260.5 -196.2 -258.9 -212.1 -249.3 -220.9C-239.8 -229.7 -222.4 -231.3 -210.1 -237.2C-197.8 -243.1 -190.6 -253.3 -183.2 -265.4C-175.8 -277.5 -168.1 -291.6 -156.6 -298.3C-145 -305 -129.4 -304.3 -115.5 -304.5C-101.5 -304.7 -89.2 -305.8 -77.2 -313.1C-65.2 -320.5 -53.5 -334 -40.7 -335.6C-27.9 -337.1 -14 -326.7 0 -316.2L0 0Z" fill="#d4dcfe"></path><path d="M-266 0C-256.2 -9.6 -246.5 -19.2 -244.7 -29.7C-242.9 -40.2 -249.1 -51.5 -247.1 -60.9C-245.1 -70.3 -234.8 -77.9 -230.5 -87.4C-226.2 -96.9 -227.8 -108.5 -225.3 -118.3C-222.9 -128.1 -216.3 -136.2 -212.3 -146.6C-208.4 -157 -207.1 -169.7 -199.5 -176.7C-191.9 -183.7 -177.9 -185 -168.1 -189.7C-158.3 -194.5 -152.5 -202.6 -146.6 -212.3C-140.6 -222 -134.5 -233.3 -125.2 -238.6C-116 -244 -103.5 -243.4 -92.4 -243.6C-81.2 -243.7 -71.3 -244.6 -61.7 -250.5C-52.1 -256.4 -42.8 -267.2 -32.6 -268.4C-22.4 -269.7 -11.2 -261.3 0 -253L0 0Z" fill="#d0d8ff"></path><path d="M-199.5 0C-192.2 -7.2 -184.9 -14.4 -183.5 -22.3C-182.2 -30.1 -186.9 -38.6 -185.3 -45.7C-183.8 -52.7 -176.1 -58.4 -172.9 -65.6C-169.6 -72.7 -170.9 -81.4 -169 -88.7C-167.2 -96.1 -162.2 -102.1 -159.2 -109.9C-156.3 -117.7 -155.3 -127.3 -149.6 -132.5C-143.9 -137.8 -133.5 -138.8 -126.1 -142.3C-118.7 -145.9 -114.4 -152 -109.9 -159.2C-105.5 -166.5 -100.9 -175 -93.9 -179C-87 -183 -77.6 -182.6 -69.3 -182.7C-60.9 -182.8 -53.5 -183.5 -46.3 -187.9C-39.1 -192.3 -32.1 -200.4 -24.4 -201.3C-16.8 -202.3 -8.4 -196 0 -189.7L0 0Z" fill="#cbd4ff"></path><path d="M-133 0C-128.1 -4.8 -123.2 -9.6 -122.4 -14.9C-121.5 -20.1 -124.6 -25.7 -123.6 -30.5C-122.5 -35.2 -117.4 -38.9 -115.2 -43.7C-113.1 -48.5 -113.9 -54.2 -112.7 -59.1C-111.4 -64 -108.1 -68.1 -106.2 -73.3C-104.2 -78.5 -103.5 -84.9 -99.7 -88.4C-95.9 -91.9 -89 -92.5 -84.1 -94.9C-79.1 -97.2 -76.2 -101.3 -73.3 -106.2C-70.3 -111 -67.3 -116.6 -62.6 -119.3C-58 -122 -51.8 -121.7 -46.2 -121.8C-40.6 -121.9 -35.7 -122.3 -30.9 -125.3C-26.1 -128.2 -21.4 -133.6 -16.3 -134.2C-11.2 -134.8 -5.6 -130.7 0 -126.5L0 0Z" fill="#c6cfff"></path><path d="M-66.5 0C-64.1 -2.4 -61.6 -4.8 -61.2 -7.4C-60.7 -10 -62.3 -12.9 -61.8 -15.2C-61.3 -17.6 -58.7 -19.5 -57.6 -21.9C-56.5 -24.2 -57 -27.1 -56.3 -29.6C-55.7 -32 -54.1 -34 -53.1 -36.6C-52.1 -39.2 -51.8 -42.4 -49.9 -44.2C-48 -45.9 -44.5 -46.3 -42 -47.4C-39.6 -48.6 -38.1 -50.7 -36.6 -53.1C-35.2 -55.5 -33.6 -58.3 -31.3 -59.7C-29 -61 -25.9 -60.9 -23.1 -60.9C-20.3 -60.9 -17.8 -61.2 -15.4 -62.6C-13 -64.1 -10.7 -66.8 -8.1 -67.1C-5.6 -67.4 -2.8 -65.3 0 -63.2L0 0Z" fill="#c4cdff"></path></g><g transform="translate(0, 0)"><path d="M533 0C523.1 20.8 513.3 41.7 506.3 61.5C499.3 81.3 495.2 100.1 499.1 123C502.9 145.9 514.6 172.9 505.7 191.8C496.8 210.6 467.2 221.3 448.9 235.6C430.6 249.9 423.6 267.9 417.3 288C410.9 308.1 405.1 330.4 395.2 350.1C385.3 369.9 371.4 387.1 352.8 398.2C334.2 409.3 311 414.3 289.7 419.7C268.4 425.1 249.1 430.9 231.4 441C213.7 451.1 197.7 465.5 179.4 473.1C161.2 480.7 140.7 481.5 121.3 492.3C102 503 83.8 523.7 63.8 525.1C43.7 526.6 21.9 508.8 0 491L0 0Z" fill="#e3e9fd"></path><path d="M466.4 0C457.7 18.2 449.1 36.4 443 53.8C436.9 71.1 433.3 87.6 436.7 107.6C440 127.7 450.3 151.3 442.5 167.8C434.7 184.3 408.8 193.6 392.8 206.2C376.8 218.7 370.7 234.4 365.1 252C359.5 269.6 354.5 289.1 345.8 306.4C337.2 323.6 324.9 338.7 308.7 348.4C292.4 358.2 272.1 362.5 253.5 367.3C234.9 372 218 377 202.5 385.8C187 394.7 173 407.3 157 414C141 420.6 123.1 421.3 106.2 430.7C89.2 440.1 73.3 458.2 55.8 459.5C38.3 460.8 19.1 445.2 0 429.6L0 0Z" fill="#dee5fe"></path><path d="M399.8 0C392.3 15.6 384.9 31.2 379.7 46.1C374.5 61 371.4 75.1 374.3 92.3C377.2 109.4 386 129.7 379.3 143.8C372.6 158 350.4 166 336.7 176.7C323 187.4 317.7 200.9 312.9 216C308.1 231.1 303.8 247.8 296.4 262.6C289 277.4 278.5 290.3 264.6 298.7C250.6 307 233.2 310.8 217.3 314.8C201.3 318.8 186.8 323.1 173.6 330.7C160.3 338.3 148.3 349.1 134.6 354.8C120.9 360.6 105.5 361.1 91 369.2C76.5 377.3 62.8 392.8 47.8 393.9C32.8 394.9 16.4 381.6 0 368.3L0 0Z" fill="#d9e0fe"></path><path d="M333.1 0C327 13 320.8 26 316.4 38.4C312.1 50.8 309.5 62.6 311.9 76.9C314.3 91.2 321.6 108.1 316.1 119.9C310.5 131.6 292 138.3 280.6 147.3C269.2 156.2 264.8 167.4 260.8 180C256.8 192.6 253.2 206.5 247 218.8C240.8 231.2 232.1 241.9 220.5 248.9C208.9 255.8 194.4 259 181.1 262.3C167.8 265.7 155.7 269.3 144.6 275.6C133.6 281.9 123.6 290.9 112.1 295.7C100.7 300.5 87.9 301 75.8 307.7C63.7 314.4 52.4 327.3 39.9 328.2C27.3 329.1 13.7 318 0 306.9L0 0Z" fill="#d4dcfe"></path><path d="M266.5 0C261.6 10.4 256.6 20.8 253.1 30.7C249.7 40.6 247.6 50 249.5 61.5C251.4 73 257.3 86.5 252.8 95.9C248.4 105.3 233.6 110.6 224.5 117.8C215.3 125 211.8 133.9 208.6 144C205.4 154.1 202.5 165.2 197.6 175.1C192.7 184.9 185.7 193.5 176.4 199.1C167.1 204.7 155.5 207.2 144.9 209.9C134.2 212.6 124.6 215.4 115.7 220.5C106.9 225.5 98.8 232.8 89.7 236.6C80.6 240.4 70.3 240.8 60.7 246.1C51 251.5 41.9 261.8 31.9 262.6C21.9 263.3 10.9 254.4 0 245.5L0 0Z" fill="#d0d8ff"></path><path d="M199.9 0C196.2 7.8 192.5 15.6 189.9 23.1C187.2 30.5 185.7 37.5 187.1 46.1C188.6 54.7 193 64.9 189.6 71.9C186.3 79 175.2 83 168.3 88.4C161.5 93.7 158.9 100.5 156.5 108C154.1 115.5 151.9 123.9 148.2 131.3C144.5 138.7 139.3 145.2 132.3 149.3C125.3 153.5 116.6 155.4 108.6 157.4C100.7 159.4 93.4 161.6 86.8 165.4C80.2 169.1 74.1 174.6 67.3 177.4C60.4 180.3 52.8 180.6 45.5 184.6C38.2 188.6 31.4 196.4 23.9 196.9C16.4 197.5 8.2 190.8 0 184.1L0 0Z" fill="#cbd4ff"></path><path d="M133.3 0C130.8 5.2 128.3 10.4 126.6 15.4C124.8 20.3 123.8 25 124.8 30.8C125.7 36.5 128.7 43.2 126.4 47.9C124.2 52.7 116.8 55.3 112.2 58.9C107.7 62.5 105.9 67 104.3 72C102.7 77 101.3 82.6 98.8 87.5C96.3 92.5 92.8 96.8 88.2 99.6C83.5 102.3 77.7 103.6 72.4 104.9C67.1 106.3 62.3 107.7 57.9 110.2C53.4 112.8 49.4 116.4 44.9 118.3C40.3 120.2 35.2 120.4 30.3 123.1C25.5 125.8 20.9 130.9 15.9 131.3C10.9 131.6 5.5 127.2 0 122.8L0 0Z" fill="#c6cfff"></path><path d="M66.6 0C65.4 2.6 64.2 5.2 63.3 7.7C62.4 10.2 61.9 12.5 62.4 15.4C62.9 18.2 64.3 21.6 63.2 24C62.1 26.3 58.4 27.7 56.1 29.5C53.8 31.2 53 33.5 52.2 36C51.4 38.5 50.6 41.3 49.4 43.8C48.2 46.2 46.4 48.4 44.1 49.8C41.8 51.2 38.9 51.8 36.2 52.5C33.6 53.1 31.1 53.9 28.9 55.1C26.7 56.4 24.7 58.2 22.4 59.1C20.1 60.1 17.6 60.2 15.2 61.5C12.7 62.9 10.5 65.5 8 65.6C5.5 65.8 2.7 63.6 0 61.4L0 0Z" fill="#c4cdff"></path></g></svg>