<svg xmlns="http://www.w3.org/2000/svg" version="1.1" xmlns:xlink="http://www.w3.org/1999/xlink" xmlns:svgjs="http://svgjs.com/svgjs" width="1440" height="560" preserveAspectRatio="none" viewBox="0 0 1440 560"><g mask="url(&quot;#SvgjsMask1045&quot;)" fill="none"><rect width="1440" height="560" x="0" y="0" fill="rgba(25, 59, 181, 1)"></rect><path d="M37.81 -65.97L102.76 -28.47L102.76 46.53L37.81 84.03L-27.14 46.53L-27.14 -28.47zM102.76 46.53L167.72 84.03L167.72 159.03L102.76 196.53L37.81 159.03L37.81 84.03zM37.81 384.03L102.76 421.53L102.76 496.53L37.81 534.03L-27.14 496.53L-27.14 421.53zM167.72 -65.97L232.67 -28.47L232.67 46.53L167.72 84.03L102.76 46.53L102.76 -28.47zM232.67 46.53L297.63 84.03L297.63 159.03L232.67 196.53L167.72 159.03L167.72 84.03zM167.72 384.03L232.67 421.53L232.67 496.53L167.72 534.03L102.76 496.53L102.76 421.53zM297.63 159.03L362.58 196.53L362.58 271.53L297.63 309.03L232.67 271.53L232.67 196.53zM362.58 271.53L427.53 309.03L427.53 384.03L362.58 421.53L297.63 384.03L297.63 309.03zM297.63 384.03L362.58 421.53L362.58 496.53L297.63 534.03L232.67 496.53L232.67 421.53zM362.58 496.53L427.53 534.03L427.53 609.03L362.58 646.53L297.63 609.03L297.63 534.03zM492.49 271.53L557.44 309.03L557.44 384.03L492.49 421.53L427.53 384.03L427.53 309.03zM427.53 384.03L492.49 421.53L492.49 496.53L427.53 534.03L362.58 496.53L362.58 421.53zM492.49 496.53L557.44 534.03L557.44 609.03L492.49 646.53L427.53 609.03L427.53 534.03zM557.44 -65.97L622.39 -28.47L622.39 46.53L557.44 84.03L492.49 46.53L492.49 -28.47zM557.44 384.03L622.39 421.53L622.39 496.53L557.44 534.03L492.49 496.53L492.49 421.53zM687.35 -65.97L752.3 -28.47L752.3 46.53L687.35 84.03L622.39 46.53L622.39 -28.47zM752.3 271.53L817.26 309.03L817.26 384.03L752.3 421.53L687.35 384.03L687.35 309.03zM687.35 384.03L752.3 421.53L752.3 496.53L687.35 534.03L622.39 496.53L622.39 421.53zM752.3 496.53L817.26 534.03L817.26 609.03L752.3 646.53L687.35 609.03L687.35 534.03zM817.25 159.03L882.21 196.53L882.21 271.53L817.25 309.03L752.3 271.53L752.3 196.53zM882.21 271.53L947.16 309.03L947.16 384.03L882.21 421.53L817.25 384.03L817.25 309.03zM947.16 159.03L1012.12 196.53L1012.12 271.53L947.16 309.03L882.21 271.53L882.21 196.53zM1142.02 46.53L1206.98 84.03L1206.98 159.03L1142.02 196.53L1077.07 159.03L1077.07 84.03zM1077.07 159.03L1142.02 196.53L1142.02 271.53L1077.07 309.03L1012.12 271.53L1012.12 196.53zM1142.02 271.53L1206.98 309.03L1206.98 384.03L1142.02 421.53L1077.07 384.03L1077.07 309.03zM1271.93 46.53L1336.88 84.03L1336.88 159.03L1271.93 196.53L1206.98 159.03L1206.98 84.03zM1271.93 271.53L1336.88 309.03L1336.88 384.03L1271.93 421.53L1206.98 384.03L1206.98 309.03zM1271.93 496.53L1336.88 534.03L1336.88 609.03L1271.93 646.53L1206.98 609.03L1206.98 534.03zM1336.88 159.03L1401.84 196.53L1401.84 271.53L1336.88 309.03L1271.93 271.53L1271.93 196.53zM1466.79 159.03L1531.75 196.53L1531.75 271.53L1466.79 309.03L1401.84 271.53L1401.84 196.53zM1531.75 271.53L1596.7 309.03L1596.7 384.03L1531.75 421.53L1466.79 384.03L1466.79 309.03zM1531.75 496.53L1596.7 534.03L1596.7 609.03L1531.75 646.53L1466.79 609.03L1466.79 534.03z" stroke="rgba(38, 69, 179, 1)" stroke-width="2"></path><path d="M30.31 -65.97 a7.5 7.5 0 1 0 15 0 a7.5 7.5 0 1 0 -15 0zM95.26 -28.47 a7.5 7.5 0 1 0 15 0 a7.5 7.5 0 1 0 -15 0zM95.26 46.53 a7.5 7.5 0 1 0 15 0 a7.5 7.5 0 1 0 -15 0zM30.31 84.03 a7.5 7.5 0 1 0 15 0 a7.5 7.5 0 1 0 -15 0zM-34.64 46.53 a7.5 7.5 0 1 0 15 0 a7.5 7.5 0 1 0 -15 0zM-34.64 -28.47 a7.5 7.5 0 1 0 15 0 a7.5 7.5 0 1 0 -15 0zM160.22 84.03 a7.5 7.5 0 1 0 15 0 a7.5 7.5 0 1 0 -15 0zM160.22 159.03 a7.5 7.5 0 1 0 15 0 a7.5 7.5 0 1 0 -15 0zM95.26 196.53 a7.5 7.5 0 1 0 15 0 a7.5 7.5 0 1 0 -15 0zM30.31 159.03 a7.5 7.5 0 1 0 15 0 a7.5 7.5 0 1 0 -15 0zM30.31 384.03 a7.5 7.5 0 1 0 15 0 a7.5 7.5 0 1 0 -15 0zM95.26 421.53 a7.5 7.5 0 1 0 15 0 a7.5 7.5 0 1 0 -15 0zM95.26 496.53 a7.5 7.5 0 1 0 15 0 a7.5 7.5 0 1 0 -15 0zM30.31 534.03 a7.5 7.5 0 1 0 15 0 a7.5 7.5 0 1 0 -15 0zM-34.64 496.53 a7.5 7.5 0 1 0 15 0 a7.5 7.5 0 1 0 -15 0zM-34.64 421.53 a7.5 7.5 0 1 0 15 0 a7.5 7.5 0 1 0 -15 0zM160.22 -65.97 a7.5 7.5 0 1 0 15 0 a7.5 7.5 0 1 0 -15 0zM225.17 -28.47 a7.5 7.5 0 1 0 15 0 a7.5 7.5 0 1 0 -15 0zM225.17 46.53 a7.5 7.5 0 1 0 15 0 a7.5 7.5 0 1 0 -15 0zM290.13 84.03 a7.5 7.5 0 1 0 15 0 a7.5 7.5 0 1 0 -15 0zM290.13 159.03 a7.5 7.5 0 1 0 15 0 a7.5 7.5 0 1 0 -15 0zM225.17 196.53 a7.5 7.5 0 1 0 15 0 a7.5 7.5 0 1 0 -15 0zM160.22 384.03 a7.5 7.5 0 1 0 15 0 a7.5 7.5 0 1 0 -15 0zM225.17 421.53 a7.5 7.5 0 1 0 15 0 a7.5 7.5 0 1 0 -15 0zM225.17 496.53 a7.5 7.5 0 1 0 15 0 a7.5 7.5 0 1 0 -15 0zM160.22 534.03 a7.5 7.5 0 1 0 15 0 a7.5 7.5 0 1 0 -15 0zM355.08 196.53 a7.5 7.5 0 1 0 15 0 a7.5 7.5 0 1 0 -15 0zM355.08 271.53 a7.5 7.5 0 1 0 15 0 a7.5 7.5 0 1 0 -15 0zM290.13 309.03 a7.5 7.5 0 1 0 15 0 a7.5 7.5 0 1 0 -15 0zM225.17 271.53 a7.5 7.5 0 1 0 15 0 a7.5 7.5 0 1 0 -15 0zM420.03 309.03 a7.5 7.5 0 1 0 15 0 a7.5 7.5 0 1 0 -15 0zM420.03 384.03 a7.5 7.5 0 1 0 15 0 a7.5 7.5 0 1 0 -15 0zM355.08 421.53 a7.5 7.5 0 1 0 15 0 a7.5 7.5 0 1 0 -15 0zM290.13 384.03 a7.5 7.5 0 1 0 15 0 a7.5 7.5 0 1 0 -15 0zM355.08 496.53 a7.5 7.5 0 1 0 15 0 a7.5 7.5 0 1 0 -15 0zM290.13 534.03 a7.5 7.5 0 1 0 15 0 a7.5 7.5 0 1 0 -15 0zM420.03 534.03 a7.5 7.5 0 1 0 15 0 a7.5 7.5 0 1 0 -15 0zM420.03 609.03 a7.5 7.5 0 1 0 15 0 a7.5 7.5 0 1 0 -15 0zM355.08 646.53 a7.5 7.5 0 1 0 15 0 a7.5 7.5 0 1 0 -15 0zM290.13 609.03 a7.5 7.5 0 1 0 15 0 a7.5 7.5 0 1 0 -15 0zM484.99 271.53 a7.5 7.5 0 1 0 15 0 a7.5 7.5 0 1 0 -15 0zM549.94 309.03 a7.5 7.5 0 1 0 15 0 a7.5 7.5 0 1 0 -15 0zM549.94 384.03 a7.5 7.5 0 1 0 15 0 a7.5 7.5 0 1 0 -15 0zM484.99 421.53 a7.5 7.5 0 1 0 15 0 a7.5 7.5 0 1 0 -15 0zM484.99 496.53 a7.5 7.5 0 1 0 15 0 a7.5 7.5 0 1 0 -15 0zM549.94 534.03 a7.5 7.5 0 1 0 15 0 a7.5 7.5 0 1 0 -15 0zM549.94 609.03 a7.5 7.5 0 1 0 15 0 a7.5 7.5 0 1 0 -15 0zM484.99 646.53 a7.5 7.5 0 1 0 15 0 a7.5 7.5 0 1 0 -15 0zM549.94 -65.97 a7.5 7.5 0 1 0 15 0 a7.5 7.5 0 1 0 -15 0zM614.89 -28.47 a7.5 7.5 0 1 0 15 0 a7.5 7.5 0 1 0 -15 0zM614.89 46.53 a7.5 7.5 0 1 0 15 0 a7.5 7.5 0 1 0 -15 0zM549.94 84.03 a7.5 7.5 0 1 0 15 0 a7.5 7.5 0 1 0 -15 0zM484.99 46.53 a7.5 7.5 0 1 0 15 0 a7.5 7.5 0 1 0 -15 0zM484.99 -28.47 a7.5 7.5 0 1 0 15 0 a7.5 7.5 0 1 0 -15 0zM614.89 421.53 a7.5 7.5 0 1 0 15 0 a7.5 7.5 0 1 0 -15 0zM614.89 496.53 a7.5 7.5 0 1 0 15 0 a7.5 7.5 0 1 0 -15 0zM679.85 -65.97 a7.5 7.5 0 1 0 15 0 a7.5 7.5 0 1 0 -15 0zM744.8 -28.47 a7.5 7.5 0 1 0 15 0 a7.5 7.5 0 1 0 -15 0zM744.8 46.53 a7.5 7.5 0 1 0 15 0 a7.5 7.5 0 1 0 -15 0zM679.85 84.03 a7.5 7.5 0 1 0 15 0 a7.5 7.5 0 1 0 -15 0zM744.8 271.53 a7.5 7.5 0 1 0 15 0 a7.5 7.5 0 1 0 -15 0zM809.76 309.03 a7.5 7.5 0 1 0 15 0 a7.5 7.5 0 1 0 -15 0zM809.76 384.03 a7.5 7.5 0 1 0 15 0 a7.5 7.5 0 1 0 -15 0zM744.8 421.53 a7.5 7.5 0 1 0 15 0 a7.5 7.5 0 1 0 -15 0zM679.85 384.03 a7.5 7.5 0 1 0 15 0 a7.5 7.5 0 1 0 -15 0zM679.85 309.03 a7.5 7.5 0 1 0 15 0 a7.5 7.5 0 1 0 -15 0zM744.8 496.53 a7.5 7.5 0 1 0 15 0 a7.5 7.5 0 1 0 -15 0zM679.85 534.03 a7.5 7.5 0 1 0 15 0 a7.5 7.5 0 1 0 -15 0zM809.76 534.03 a7.5 7.5 0 1 0 15 0 a7.5 7.5 0 1 0 -15 0zM809.76 609.03 a7.5 7.5 0 1 0 15 0 a7.5 7.5 0 1 0 -15 0zM744.8 646.53 a7.5 7.5 0 1 0 15 0 a7.5 7.5 0 1 0 -15 0zM679.85 609.03 a7.5 7.5 0 1 0 15 0 a7.5 7.5 0 1 0 -15 0zM809.75 159.03 a7.5 7.5 0 1 0 15 0 a7.5 7.5 0 1 0 -15 0zM874.71 196.53 a7.5 7.5 0 1 0 15 0 a7.5 7.5 0 1 0 -15 0zM874.71 271.53 a7.5 7.5 0 1 0 15 0 a7.5 7.5 0 1 0 -15 0zM809.75 309.03 a7.5 7.5 0 1 0 15 0 a7.5 7.5 0 1 0 -15 0zM744.8 196.53 a7.5 7.5 0 1 0 15 0 a7.5 7.5 0 1 0 -15 0zM939.66 309.03 a7.5 7.5 0 1 0 15 0 a7.5 7.5 0 1 0 -15 0zM939.66 384.03 a7.5 7.5 0 1 0 15 0 a7.5 7.5 0 1 0 -15 0zM874.71 421.53 a7.5 7.5 0 1 0 15 0 a7.5 7.5 0 1 0 -15 0zM809.75 384.03 a7.5 7.5 0 1 0 15 0 a7.5 7.5 0 1 0 -15 0zM939.66 159.03 a7.5 7.5 0 1 0 15 0 a7.5 7.5 0 1 0 -15 0zM1004.62 196.53 a7.5 7.5 0 1 0 15 0 a7.5 7.5 0 1 0 -15 0zM1004.62 271.53 a7.5 7.5 0 1 0 15 0 a7.5 7.5 0 1 0 -15 0zM1134.52 46.53 a7.5 7.5 0 1 0 15 0 a7.5 7.5 0 1 0 -15 0zM1199.48 84.03 a7.5 7.5 0 1 0 15 0 a7.5 7.5 0 1 0 -15 0zM1199.48 159.03 a7.5 7.5 0 1 0 15 0 a7.5 7.5 0 1 0 -15 0zM1134.52 196.53 a7.5 7.5 0 1 0 15 0 a7.5 7.5 0 1 0 -15 0zM1069.57 159.03 a7.5 7.5 0 1 0 15 0 a7.5 7.5 0 1 0 -15 0zM1069.57 84.03 a7.5 7.5 0 1 0 15 0 a7.5 7.5 0 1 0 -15 0zM1134.52 271.53 a7.5 7.5 0 1 0 15 0 a7.5 7.5 0 1 0 -15 0zM1069.57 309.03 a7.5 7.5 0 1 0 15 0 a7.5 7.5 0 1 0 -15 0zM1199.48 309.03 a7.5 7.5 0 1 0 15 0 a7.5 7.5 0 1 0 -15 0zM1199.48 384.03 a7.5 7.5 0 1 0 15 0 a7.5 7.5 0 1 0 -15 0zM1134.52 421.53 a7.5 7.5 0 1 0 15 0 a7.5 7.5 0 1 0 -15 0zM1069.57 384.03 a7.5 7.5 0 1 0 15 0 a7.5 7.5 0 1 0 -15 0zM1264.43 46.53 a7.5 7.5 0 1 0 15 0 a7.5 7.5 0 1 0 -15 0zM1329.38 84.03 a7.5 7.5 0 1 0 15 0 a7.5 7.5 0 1 0 -15 0zM1329.38 159.03 a7.5 7.5 0 1 0 15 0 a7.5 7.5 0 1 0 -15 0zM1264.43 196.53 a7.5 7.5 0 1 0 15 0 a7.5 7.5 0 1 0 -15 0zM1264.43 271.53 a7.5 7.5 0 1 0 15 0 a7.5 7.5 0 1 0 -15 0zM1329.38 309.03 a7.5 7.5 0 1 0 15 0 a7.5 7.5 0 1 0 -15 0zM1329.38 384.03 a7.5 7.5 0 1 0 15 0 a7.5 7.5 0 1 0 -15 0zM1264.43 421.53 a7.5 7.5 0 1 0 15 0 a7.5 7.5 0 1 0 -15 0zM1264.43 496.53 a7.5 7.5 0 1 0 15 0 a7.5 7.5 0 1 0 -15 0zM1329.38 534.03 a7.5 7.5 0 1 0 15 0 a7.5 7.5 0 1 0 -15 0zM1329.38 609.03 a7.5 7.5 0 1 0 15 0 a7.5 7.5 0 1 0 -15 0zM1264.43 646.53 a7.5 7.5 0 1 0 15 0 a7.5 7.5 0 1 0 -15 0zM1199.48 609.03 a7.5 7.5 0 1 0 15 0 a7.5 7.5 0 1 0 -15 0zM1199.48 534.03 a7.5 7.5 0 1 0 15 0 a7.5 7.5 0 1 0 -15 0zM1394.34 196.53 a7.5 7.5 0 1 0 15 0 a7.5 7.5 0 1 0 -15 0zM1394.34 271.53 a7.5 7.5 0 1 0 15 0 a7.5 7.5 0 1 0 -15 0zM1459.29 159.03 a7.5 7.5 0 1 0 15 0 a7.5 7.5 0 1 0 -15 0zM1524.25 196.53 a7.5 7.5 0 1 0 15 0 a7.5 7.5 0 1 0 -15 0zM1524.25 271.53 a7.5 7.5 0 1 0 15 0 a7.5 7.5 0 1 0 -15 0zM1459.29 309.03 a7.5 7.5 0 1 0 15 0 a7.5 7.5 0 1 0 -15 0zM1589.2 309.03 a7.5 7.5 0 1 0 15 0 a7.5 7.5 0 1 0 -15 0zM1589.2 384.03 a7.5 7.5 0 1 0 15 0 a7.5 7.5 0 1 0 -15 0zM1524.25 421.53 a7.5 7.5 0 1 0 15 0 a7.5 7.5 0 1 0 -15 0zM1459.29 384.03 a7.5 7.5 0 1 0 15 0 a7.5 7.5 0 1 0 -15 0zM1524.25 496.53 a7.5 7.5 0 1 0 15 0 a7.5 7.5 0 1 0 -15 0zM1589.2 534.03 a7.5 7.5 0 1 0 15 0 a7.5 7.5 0 1 0 -15 0zM1589.2 609.03 a7.5 7.5 0 1 0 15 0 a7.5 7.5 0 1 0 -15 0zM1524.25 646.53 a7.5 7.5 0 1 0 15 0 a7.5 7.5 0 1 0 -15 0zM1459.29 609.03 a7.5 7.5 0 1 0 15 0 a7.5 7.5 0 1 0 -15 0zM1459.29 534.03 a7.5 7.5 0 1 0 15 0 a7.5 7.5 0 1 0 -15 0z" fill="rgba(38, 69, 179, 1)"></path><path d="M27.53 221.37L62.17 241.37L62.17 281.37L27.53 301.37L-7.11 281.37L-7.11 241.37zM62.17 281.37L96.81 301.37L96.81 341.37L62.17 361.37L27.53 341.37L27.53 301.37zM27.53 341.37L62.17 361.37L62.17 401.37L27.53 421.37L-7.11 401.37L-7.11 361.37zM96.81 101.37L131.46 121.37L131.46 161.37L96.81 181.37L62.17 161.37L62.17 121.37zM96.81 221.37L131.46 241.37L131.46 281.37L96.81 301.37L62.17 281.37L62.17 241.37zM166.1 101.37L200.74 121.37L200.74 161.37L166.1 181.37L131.46 161.37L131.46 121.37zM200.74 281.37L235.38 301.37L235.38 341.37L200.74 361.37L166.1 341.37L166.1 301.37zM235.38 -18.63L270.02 1.37L270.02 41.37L235.38 61.37L200.74 41.37L200.74 1.37zM270.02 161.37L304.67 181.37L304.67 221.37L270.02 241.37L235.38 221.37L235.38 181.37zM235.38 341.37L270.02 361.37L270.02 401.37L235.38 421.37L200.74 401.37L200.74 361.37zM235.38 461.37L270.02 481.37L270.02 521.37L235.38 541.37L200.74 521.37L200.74 481.37zM304.67 -18.63L339.31 1.37L339.31 41.37L304.67 61.37L270.02 41.37L270.02 1.37zM304.67 221.37L339.31 241.37L339.31 281.37L304.67 301.37L270.02 281.37L270.02 241.37zM304.67 341.37L339.31 361.37L339.31 401.37L304.67 421.37L270.02 401.37L270.02 361.37zM408.59 41.37L443.23 61.37L443.23 101.37L408.59 121.37L373.95 101.37L373.95 61.37zM373.95 101.37L408.59 121.37L408.59 161.37L373.95 181.37L339.31 161.37L339.31 121.37zM408.59 281.37L443.23 301.37L443.23 341.37L408.59 361.37L373.95 341.37L373.95 301.37zM408.59 401.37L443.23 421.37L443.23 461.37L408.59 481.37L373.95 461.37L373.95 421.37zM373.95 461.37L408.59 481.37L408.59 521.37L373.95 541.37L339.31 521.37L339.31 481.37zM477.88 41.37L512.52 61.37L512.52 101.37L477.88 121.37L443.23 101.37L443.23 61.37zM477.88 161.37L512.52 181.37L512.52 221.37L477.88 241.37L443.23 221.37L443.23 181.37zM477.88 401.37L512.52 421.37L512.52 461.37L477.88 481.37L443.23 461.37L443.23 421.37zM512.52 -18.63L547.16 1.37L547.16 41.37L512.52 61.37L477.88 41.37L477.88 1.37zM512.52 101.37L547.16 121.37L547.16 161.37L512.52 181.37L477.88 161.37L477.88 121.37zM547.16 161.37L581.8 181.37L581.8 221.37L547.16 241.37L512.52 221.37L512.52 181.37zM512.52 221.37L547.16 241.37L547.16 281.37L512.52 301.37L477.88 281.37L477.88 241.37zM547.16 281.37L581.8 301.37L581.8 341.37L547.16 361.37L512.52 341.37L512.52 301.37zM512.52 341.37L547.16 361.37L547.16 401.37L512.52 421.37L477.88 401.37L477.88 361.37zM547.16 401.37L581.8 421.37L581.8 461.37L547.16 481.37L512.52 461.37L512.52 421.37zM616.44 41.37L651.09 61.37L651.09 101.37L616.44 121.37L581.8 101.37L581.8 61.37zM581.8 221.37L616.44 241.37L616.44 281.37L581.8 301.37L547.16 281.37L547.16 241.37zM616.44 281.37L651.09 301.37L651.09 341.37L616.44 361.37L581.8 341.37L581.8 301.37zM581.8 341.37L616.44 361.37L616.44 401.37L581.8 421.37L547.16 401.37L547.16 361.37zM581.8 461.37L616.44 481.37L616.44 521.37L581.8 541.37L547.16 521.37L547.16 481.37zM685.73 41.37L720.37 61.37L720.37 101.37L685.73 121.37L651.09 101.37L651.09 61.37zM685.73 161.37L720.37 181.37L720.37 221.37L685.73 241.37L651.09 221.37L651.09 181.37zM685.73 281.37L720.37 301.37L720.37 341.37L685.73 361.37L651.09 341.37L651.09 301.37zM651.09 341.37L685.73 361.37L685.73 401.37L651.09 421.37L616.44 401.37L616.44 361.37zM685.73 521.37L720.37 541.37L720.37 581.37L685.73 601.37L651.09 581.37L651.09 541.37zM720.37 -18.63L755.01 1.37L755.01 41.37L720.37 61.37L685.73 41.37L685.73 1.37zM755.01 41.37L789.65 61.37L789.65 101.37L755.01 121.37L720.37 101.37L720.37 61.37zM755.01 161.37L789.65 181.37L789.65 221.37L755.01 241.37L720.37 221.37L720.37 181.37zM720.37 221.37L755.01 241.37L755.01 281.37L720.37 301.37L685.73 281.37L685.73 241.37zM755.01 401.37L789.65 421.37L789.65 461.37L755.01 481.37L720.37 461.37L720.37 421.37zM720.37 461.37L755.01 481.37L755.01 521.37L720.37 541.37L685.73 521.37L685.73 481.37zM824.3 401.37L858.94 421.37L858.94 461.37L824.3 481.37L789.65 461.37L789.65 421.37zM893.58 161.37L928.22 181.37L928.22 221.37L893.58 241.37L858.94 221.37L858.94 181.37zM858.94 221.37L893.58 241.37L893.58 281.37L858.94 301.37L824.3 281.37L824.3 241.37zM858.94 341.37L893.58 361.37L893.58 401.37L858.94 421.37L824.3 401.37L824.3 361.37zM893.58 401.37L928.22 421.37L928.22 461.37L893.58 481.37L858.94 461.37L858.94 421.37zM893.58 521.37L928.22 541.37L928.22 581.37L893.58 601.37L858.94 581.37L858.94 541.37zM928.22 -18.63L962.86 1.37L962.86 41.37L928.22 61.37L893.58 41.37L893.58 1.37zM962.86 41.37L997.51 61.37L997.51 101.37L962.86 121.37L928.22 101.37L928.22 61.37zM928.22 101.37L962.86 121.37L962.86 161.37L928.22 181.37L893.58 161.37L893.58 121.37zM962.86 161.37L997.51 181.37L997.51 221.37L962.86 241.37L928.22 221.37L928.22 181.37zM962.86 401.37L997.51 421.37L997.51 461.37L962.86 481.37L928.22 461.37L928.22 421.37zM928.22 461.37L962.86 481.37L962.86 521.37L928.22 541.37L893.58 521.37L893.58 481.37zM997.51 -18.63L1032.15 1.37L1032.15 41.37L997.51 61.37L962.86 41.37L962.86 1.37zM1032.15 41.37L1066.79 61.37L1066.79 101.37L1032.15 121.37L997.51 101.37L997.51 61.37zM1032.15 161.37L1066.79 181.37L1066.79 221.37L1032.15 241.37L997.51 221.37L997.51 181.37zM1032.15 401.37L1066.79 421.37L1066.79 461.37L1032.15 481.37L997.51 461.37L997.51 421.37zM997.51 461.37L1032.15 481.37L1032.15 521.37L997.51 541.37L962.86 521.37L962.86 481.37zM1066.79 -18.63L1101.43 1.37L1101.43 41.37L1066.79 61.37L1032.15 41.37L1032.15 1.37zM1101.43 161.37L1136.07 181.37L1136.07 221.37L1101.43 241.37L1066.79 221.37L1066.79 181.37zM1066.79 341.37L1101.43 361.37L1101.43 401.37L1066.79 421.37L1032.15 401.37L1032.15 361.37zM1136.07 -18.63L1170.72 1.37L1170.72 41.37L1136.07 61.37L1101.43 41.37L1101.43 1.37zM1170.72 41.37L1205.36 61.37L1205.36 101.37L1170.72 121.37L1136.07 101.37L1136.07 61.37zM1170.72 161.37L1205.36 181.37L1205.36 221.37L1170.72 241.37L1136.07 221.37L1136.07 181.37zM1136.07 221.37L1170.72 241.37L1170.72 281.37L1136.07 301.37L1101.43 281.37L1101.43 241.37zM1170.72 401.37L1205.36 421.37L1205.36 461.37L1170.72 481.37L1136.07 461.37L1136.07 421.37zM1136.07 461.37L1170.72 481.37L1170.72 521.37L1136.07 541.37L1101.43 521.37L1101.43 481.37zM1205.36 101.37L1240 121.37L1240 161.37L1205.36 181.37L1170.72 161.37L1170.72 121.37zM1274.64 221.37L1309.28 241.37L1309.28 281.37L1274.64 301.37L1240 281.37L1240 241.37zM1309.28 281.37L1343.93 301.37L1343.93 341.37L1309.28 361.37L1274.64 341.37L1274.64 301.37zM1309.28 521.37L1343.93 541.37L1343.93 581.37L1309.28 601.37L1274.64 581.37L1274.64 541.37zM1343.93 -18.63L1378.57 1.37L1378.57 41.37L1343.93 61.37L1309.28 41.37L1309.28 1.37zM1378.57 161.37L1413.21 181.37L1413.21 221.37L1378.57 241.37L1343.93 221.37L1343.93 181.37zM1378.57 281.37L1413.21 301.37L1413.21 341.37L1378.57 361.37L1343.93 341.37L1343.93 301.37zM1343.93 461.37L1378.57 481.37L1378.57 521.37L1343.93 541.37L1309.28 521.37L1309.28 481.37zM1447.85 41.37L1482.49 61.37L1482.49 101.37L1447.85 121.37L1413.21 101.37L1413.21 61.37zM1447.85 281.37L1482.49 301.37L1482.49 341.37L1447.85 361.37L1413.21 341.37L1413.21 301.37zM1413.21 341.37L1447.85 361.37L1447.85 401.37L1413.21 421.37L1378.57 401.37L1378.57 361.37zM1447.85 521.37L1482.49 541.37L1482.49 581.37L1447.85 601.37L1413.21 581.37L1413.21 541.37z" stroke="rgba(6, 80, 156, 0.93)" stroke-width="2"></path></g><defs><mask id="SvgjsMask1045"><rect width="1440" height="560" fill="#ffffff"></rect></mask></defs></svg>