<svg id="visual" viewBox="0 0 900 600" width="900" height="600" xmlns="http://www.w3.org/2000/svg" xmlns:xlink="http://www.w3.org/1999/xlink" version="1.1"><path d="M0 67L37.5 75C75 83 150 99 225 93.5C300 88 375 61 450 54.7C525 48.3 600 62.7 675 62C750 61.3 825 45.7 862.5 37.8L900 30L900 601L862.5 601C825 601 750 601 675 601C600 601 525 601 450 601C375 601 300 601 225 601C150 601 75 601 37.5 601L0 601Z" fill="#193bb5"></path><path d="M0 167L37.5 151.5C75 136 150 105 225 93.7C300 82.3 375 90.7 450 101.5C525 112.3 600 125.7 675 125.2C750 124.7 825 110.3 862.5 103.2L900 96L900 601L862.5 601C825 601 750 601 675 601C600 601 525 601 450 601C375 601 300 601 225 601C150 601 75 601 37.5 601L0 601Z" fill="#1d3eb6"></path><path d="M0 219L37.5 208.7C75 198.3 150 177.7 225 170.3C300 163 375 169 450 174C525 179 600 183 675 189C750 195 825 203 862.5 207L900 211L900 601L862.5 601C825 601 750 601 675 601C600 601 525 601 450 601C375 601 300 601 225 601C150 601 75 601 37.5 601L0 601Z" fill="#2041b7"></path><path d="M0 225L37.5 230.7C75 236.3 150 247.7 225 244.8C300 242 375 225 450 217.8C525 210.7 600 213.3 675 212.8C750 212.3 825 208.7 862.5 206.8L900 205L900 601L862.5 601C825 601 750 601 675 601C600 601 525 601 450 601C375 601 300 601 225 601C150 601 75 601 37.5 601L0 601Z" fill="#2443b7"></path><path d="M0 251L37.5 256.8C75 262.7 150 274.3 225 284.5C300 294.7 375 303.3 450 300.2C525 297 600 282 675 274C750 266 825 265 862.5 264.5L900 264L900 601L862.5 601C825 601 750 601 675 601C600 601 525 601 450 601C375 601 300 601 225 601C150 601 75 601 37.5 601L0 601Z" fill="#2746b8"></path><path d="M0 317L37.5 325.5C75 334 150 351 225 355.8C300 360.7 375 353.3 450 349.5C525 345.7 600 345.3 675 342.7C750 340 825 335 862.5 332.5L900 330L900 601L862.5 601C825 601 750 601 675 601C600 601 525 601 450 601C375 601 300 601 225 601C150 601 75 601 37.5 601L0 601Z" fill="#2a49b9"></path><path d="M0 455L37.5 455.2C75 455.3 150 455.7 225 445.5C300 435.3 375 414.7 450 414C525 413.3 600 432.7 675 436C750 439.3 825 426.7 862.5 420.3L900 414L900 601L862.5 601C825 601 750 601 675 601C600 601 525 601 450 601C375 601 300 601 225 601C150 601 75 601 37.5 601L0 601Z" fill="#2e4cba"></path><path d="M0 462L37.5 462.8C75 463.7 150 465.3 225 465.5C300 465.7 375 464.3 450 459C525 453.7 600 444.3 675 454.3C750 464.3 825 493.7 862.5 508.3L900 523L900 601L862.5 601C825 601 750 601 675 601C600 601 525 601 450 601C375 601 300 601 225 601C150 601 75 601 37.5 601L0 601Z" fill="#314eba"></path><path d="M0 513L37.5 513.7C75 514.3 150 515.7 225 529C300 542.3 375 567.7 450 577.2C525 586.7 600 580.3 675 563C750 545.7 825 517.3 862.5 503.2L900 489L900 601L862.5 601C825 601 750 601 675 601C600 601 525 601 450 601C375 601 300 601 225 601C150 601 75 601 37.5 601L0 601Z" fill="#3451bb"></path></svg>