<svg id="visual" viewBox="0 0 1500 540" width="1500" height="540" xmlns="http://www.w3.org/2000/svg" xmlns:xlink="http://www.w3.org/1999/xlink" version="1.1"><path d="M0 457L19.2 447.7C38.3 438.3 76.7 419.7 115.2 413.5C153.7 407.3 192.3 413.7 230.8 414.8C269.3 416 307.7 412 346.2 413C384.7 414 423.3 420 461.8 431.2C500.3 442.3 538.7 458.7 577 469.5C615.3 480.3 653.7 485.7 692.2 472.7C730.7 459.7 769.3 428.3 807.8 413C846.3 397.7 884.7 398.3 923 410.2C961.3 422 999.7 445 1038.2 456.5C1076.7 468 1115.3 468 1153.8 452.7C1192.3 437.3 1230.7 406.7 1269.2 395.8C1307.7 385 1346.3 394 1384.8 403.8C1423.3 413.7 1461.7 424.3 1480.8 429.7L1500 435L1500 541L1480.8 541C1461.7 541 1423.3 541 1384.8 541C1346.3 541 1307.7 541 1269.2 541C1230.7 541 1192.3 541 1153.8 541C1115.3 541 1076.7 541 1038.2 541C999.7 541 961.3 541 923 541C884.7 541 846.3 541 807.8 541C769.3 541 730.7 541 692.2 541C653.7 541 615.3 541 577 541C538.7 541 500.3 541 461.8 541C423.3 541 384.7 541 346.2 541C307.7 541 269.3 541 230.8 541C192.3 541 153.7 541 115.2 541C76.7 541 38.3 541 19.2 541L0 541Z" fill="#F8F8F8" stroke-linecap="round" stroke-linejoin="miter"></path></svg>